<svg width="8" height="5" viewBox="0 0 8 5" fill="none" xmlns="http://www.w3.org/2000/svg">
<path d="M7.82391 0.176092C7.71112 0.0633406 7.55817 1.39421e-08 7.39869 0C7.23921 -1.39421e-08 7.08626 0.0633405 6.97348 0.176092L3.99637 3.1532L1.01926 0.176092C0.905828 0.0665354 0.753904 0.00591406 0.596209 0.00728437C0.438515 0.00865468 0.287667 0.0719069 0.176156 0.183418C0.0646448 0.294929 0.00139307 0.445777 2.27363e-05 0.603472C-0.0013476 0.761166 0.0592737 0.91309 0.16883 1.02652L3.57115 4.42885C3.68394 4.5416 3.83689 4.60494 3.99637 4.60494C4.15585 4.60494 4.3088 4.5416 4.42158 4.42885L7.82391 1.02652C7.93666 0.913737 8 0.760787 8 0.601308C8 0.441828 7.93666 0.288878 7.82391 0.176092Z" fill="#0A0A0A" style="fill:#0A0A0A;fill:color(display-p3 0.0392 0.0392 0.0392);fill-opacity:1;"/>
</svg>
