<svg xmlns="http://www.w3.org/2000/svg" width="20" height="20" viewBox="0 0 20 20" fill="none"><path d="M10 0C4.489 0 0 4.489 0 10C0 15.511 4.489 20 10 20C15.511 20 20 15.511 20 10C20 4.489 15.511 0 10 0ZM10 2C14.4301 2 18 5.56988 18 10C18 14.4301 14.4301 18 10 18C5.56988 18 2 14.4301 2 10C2 5.56988 5.56988 2 10 2ZM10 5C9.44771 5 9 5.44772 9 6C9 6.55228 9.44771 7 10 7C10.5523 7 11 6.55228 11 6C11 5.44772 10.5523 5 10 5ZM10 8.5C9.44771 8.5 9 8.94772 9 9.5V14C9 14.5523 9.44771 15 10 15C10.5523 15 11 14.5523 11 14V9.5C11 8.94771 10.5523 8.5 10 8.5Z" fill="#333333"/></svg>