<svg width="112" height="50" viewBox="0 0 112 50" fill="none" xmlns="http://www.w3.org/2000/svg">
<rect width="111" height="48.68" transform="translate(0.700684 0.716553)"/>
<path d="M86.5053 17.0209H80.5148C80.1624 17.0209 79.8101 17.3687 79.6339 17.7166L77.1672 33.0209C77.1672 33.3687 77.3434 33.5427 77.6958 33.5427H80.8672C81.2196 33.5427 81.3958 33.3687 81.3958 33.0209L82.1005 28.6731C82.1005 28.3253 82.4529 27.9774 82.9815 27.9774H84.9196C88.972 27.9774 91.2624 26.0644 91.791 22.2383C92.1434 20.6731 91.791 19.2818 91.0862 18.4122C90.0291 17.5426 88.4434 17.0209 86.5053 17.0209ZM87.2101 22.76C86.8577 24.847 85.272 24.847 83.6862 24.847H82.6291L83.3339 20.847C83.3339 20.6731 83.5101 20.4992 83.8624 20.4992H84.2148C85.272 20.4992 86.3291 20.4992 86.8577 21.1948C87.2101 21.3687 87.2101 21.8905 87.2101 22.76Z" fill="#139AD6"/>
<path d="M43.3388 17.0209H37.3483C36.9959 17.0209 36.6435 17.3687 36.4674 17.7166L34.0007 33.0209C34.0007 33.3687 34.1769 33.5427 34.5293 33.5427H37.3483C37.7007 33.5427 38.0531 33.1948 38.2293 32.847L38.934 28.6731C38.934 28.3253 39.2864 27.9774 39.815 27.9774H41.7531C45.8054 27.9774 48.0959 26.0644 48.6245 22.2383C48.9769 20.6731 48.6245 19.2818 47.9197 18.4122C46.8626 17.5426 45.4531 17.0209 43.3388 17.0209ZM44.0435 22.76C43.6912 24.847 42.1054 24.847 40.5197 24.847H39.6388L40.3435 20.847C40.3435 20.6731 40.5197 20.4992 40.8721 20.4992H41.2245C42.2816 20.4992 43.3388 20.4992 43.8674 21.1948C44.0435 21.3687 44.2197 21.8905 44.0435 22.76Z" fill="#263B80"/>
<path d="M61.4865 22.5859H58.6675C58.4913 22.5859 58.1389 22.7598 58.1389 22.9337L57.9627 23.8033L57.7865 23.4555C57.0818 22.5859 55.8484 22.2381 54.4389 22.2381C51.2675 22.2381 48.4484 24.6729 47.9199 27.9772C47.5675 29.7164 48.0961 31.2816 48.977 32.3251C49.858 33.3685 51.0913 33.7164 52.677 33.7164C55.3199 33.7164 56.7294 32.1511 56.7294 32.1511L56.5532 33.0207C56.5532 33.3685 56.7294 33.5425 57.0818 33.5425H59.7246C60.077 33.5425 60.4294 33.1946 60.6056 32.8468L62.1913 23.1077C62.0151 22.9337 61.6627 22.5859 61.4865 22.5859ZM57.4342 28.1511C57.0818 29.7164 55.8484 30.9338 54.0865 30.9338C53.2056 30.9338 52.5008 30.5859 52.1484 30.2381C51.7961 29.7164 51.6199 29.0207 51.6199 28.1511C51.7961 26.5859 53.2056 25.3685 54.7913 25.3685C55.6722 25.3685 56.2008 25.7164 56.7294 26.0642C57.258 26.5859 57.4342 27.4555 57.4342 28.1511Z" fill="#263B80"/>
<path d="M104.477 22.586H101.658C101.481 22.586 101.129 22.7599 101.129 22.9338L100.953 23.8034L100.777 23.4555C100.072 22.586 98.8386 22.2381 97.4291 22.2381C94.2577 22.2381 91.4386 24.6729 90.91 27.9773C90.5577 29.7164 91.0862 31.2816 91.9672 32.3251C92.8481 33.3686 94.0815 33.7164 95.6672 33.7164C98.31 33.7164 99.7196 32.1512 99.7196 32.1512L99.5434 33.0208C99.5434 33.3686 99.7196 33.5425 100.072 33.5425H102.715C103.067 33.5425 103.42 33.1947 103.596 32.8468L105.181 23.1077C105.005 22.9338 104.829 22.586 104.477 22.586ZM100.424 28.1512C100.072 29.7164 98.8386 30.9338 97.0767 30.9338C96.1958 30.9338 95.491 30.586 95.1386 30.2382C94.7862 29.7164 94.61 29.0208 94.61 28.1512C94.7862 26.586 96.1957 25.3686 97.7815 25.3686C98.6624 25.3686 99.191 25.7164 99.7196 26.0642C100.424 26.586 100.601 27.4555 100.424 28.1512Z" fill="#139AD6"/>
<path d="M76.8151 22.5861H73.8198C73.4674 22.5861 73.2912 22.76 73.1151 22.9339L69.2389 28.847L67.477 23.2818C67.3008 22.9339 67.1246 22.76 66.596 22.76H63.777C63.4246 22.76 63.2484 23.1078 63.2484 23.4557L66.4198 32.6731L63.4246 36.847C63.2484 37.1948 63.4246 37.7166 63.777 37.7166H66.596C66.9484 37.7166 67.1246 37.5426 67.3008 37.3687L76.9912 23.6296C77.5198 23.1078 77.1674 22.5861 76.8151 22.5861Z" fill="#263B80"/>
<path d="M107.824 17.5424L105.358 33.1946C105.358 33.5424 105.534 33.7163 105.886 33.7163H108.353C108.705 33.7163 109.058 33.3685 109.234 33.0207L111.7 17.7163C111.7 17.3685 111.524 17.1946 111.172 17.1946H108.353C108.177 17.0207 108 17.1946 107.824 17.5424Z" fill="#139AD6"/>
<path d="M20.9626 11.8035C19.7293 10.4122 17.4388 9.71655 14.2674 9.71655H5.45783C4.92926 9.71655 4.40068 10.2383 4.22449 10.76L0.700684 33.5427C0.700684 34.0644 1.05306 34.4122 1.40545 34.4122H6.86735L8.27687 25.8905V26.2383C8.45306 25.7166 8.98164 25.1948 9.51021 25.1948H12.1531C17.2626 25.1948 21.1388 23.1079 22.3721 17.3687C22.3721 17.1948 22.3721 17.0209 22.3721 16.847C22.1959 16.847 22.1959 16.847 22.3721 16.847C22.5483 14.5861 22.1959 13.1948 20.9626 11.8035Z" fill="#263B80"/>
<path d="M22.1959 16.847C22.1959 17.021 22.1959 17.1949 22.1959 17.3688C20.9626 23.2818 17.0864 25.1949 11.9769 25.1949H9.334C8.80542 25.1949 8.27685 25.7166 8.10066 26.2384L6.33876 36.8471C6.33876 37.1949 6.51495 37.5427 7.04352 37.5427H11.6245C12.153 37.5427 12.6816 37.1949 12.6816 36.6731V36.4992L13.5626 31.1079V30.7601C13.5626 30.2384 14.0911 29.8905 14.6197 29.8905H15.3245C19.7292 29.8905 23.253 28.1514 24.134 22.934C24.4864 20.847 24.3102 18.934 23.253 17.7166C23.0769 17.3688 22.7245 17.021 22.1959 16.847Z" fill="#139AD6"/>
<path d="M20.9625 16.3251C20.7864 16.3251 20.6102 16.1512 20.434 16.1512C20.2578 16.1512 20.0816 16.1512 19.9054 15.9773C19.2006 15.8034 18.4959 15.8034 17.6149 15.8034H10.7435C10.5673 15.8034 10.3911 15.8034 10.2149 15.9773C9.86255 16.1512 9.68635 16.499 9.68635 16.8468L8.27687 25.8905V26.2383C8.45306 25.7166 8.98164 25.1948 9.51021 25.1948H12.1531C17.2626 25.1948 21.1388 23.1079 22.3721 17.3687C22.3721 17.1948 22.3721 17.0208 22.5483 16.8468C22.1959 16.6729 22.0197 16.499 21.6673 16.499C21.1387 16.3251 21.1387 16.3251 20.9625 16.3251Z" fill="#232C65"/>
<path d="M66.6606 47.278H65.7007L68.4772 39.7166H69.4223L72.1988 47.278H71.2389L68.9793 40.9128H68.9202L66.6606 47.278ZM67.0151 44.3243H70.8844V45.1366H67.0151V44.3243Z" fill="#173C36"/>
<path d="M75.5623 47.3962C75.0307 47.3962 74.5728 47.2706 74.1889 47.0196C73.8049 46.7685 73.5095 46.4227 73.3028 45.9821C73.096 45.5415 72.9926 45.0381 72.9926 44.472C72.9926 43.896 73.0985 43.3877 73.3101 42.9472C73.5243 42.5041 73.8221 42.1583 74.2036 41.9097C74.5876 41.6586 75.0356 41.5331 75.5476 41.5331C75.9463 41.5331 76.3057 41.6069 76.6257 41.7546C76.9456 41.9023 77.2078 42.109 77.4121 42.3749C77.6164 42.6407 77.7431 42.9508 77.7924 43.3053H76.921C76.8546 43.0468 76.7069 42.8179 76.478 42.6186C76.2515 42.4167 75.9463 42.3158 75.5623 42.3158C75.2227 42.3158 74.9248 42.4044 74.6688 42.5816C74.4153 42.7564 74.2172 43.0038 74.0744 43.3238C73.9341 43.6413 73.864 44.0142 73.864 44.4425C73.864 44.8806 73.9329 45.2621 74.0707 45.587C74.211 45.9119 74.4079 46.1642 74.6615 46.3439C74.9174 46.5236 75.2177 46.6134 75.5623 46.6134C75.7888 46.6134 75.9943 46.574 76.1789 46.4953C76.3635 46.4165 76.5198 46.3033 76.6478 46.1556C76.7758 46.0079 76.8669 45.8307 76.921 45.6239H77.7924C77.7431 45.9587 77.6213 46.2602 77.4269 46.5285C77.2349 46.7943 76.9801 47.006 76.6626 47.1636C76.3475 47.3186 75.9808 47.3962 75.5623 47.3962Z" fill="#173C36"/>
<path d="M81.37 47.3962C80.8384 47.3962 80.3805 47.2706 79.9966 47.0196C79.6126 46.7685 79.3172 46.4227 79.1105 45.9821C78.9037 45.5415 78.8003 45.0381 78.8003 44.472C78.8003 43.896 78.9062 43.3877 79.1178 42.9472C79.332 42.5041 79.6298 42.1583 80.0113 41.9097C80.3953 41.6586 80.8433 41.5331 81.3553 41.5331C81.754 41.5331 82.1134 41.6069 82.4334 41.7546C82.7533 41.9023 83.0155 42.109 83.2198 42.3749C83.4241 42.6407 83.5508 42.9508 83.6001 43.3053H82.7287C82.6623 43.0468 82.5146 42.8179 82.2857 42.6186C82.0592 42.4167 81.754 42.3158 81.37 42.3158C81.0304 42.3158 80.7325 42.4044 80.4765 42.5816C80.223 42.7564 80.0249 43.0038 79.8821 43.3238C79.7418 43.6413 79.6717 44.0142 79.6717 44.4425C79.6717 44.8806 79.7406 45.2621 79.8784 45.587C80.0187 45.9119 80.2156 46.1642 80.4692 46.3439C80.7251 46.5236 81.0254 46.6134 81.37 46.6134C81.5965 46.6134 81.802 46.574 81.9866 46.4953C82.1712 46.4165 82.3275 46.3033 82.4555 46.1556C82.5835 46.0079 82.6746 45.8307 82.7287 45.6239H83.6001C83.5508 45.9587 83.429 46.2602 83.2346 46.5285C83.0426 46.7943 82.7878 47.006 82.4703 47.1636C82.1552 47.3186 81.7885 47.3962 81.37 47.3962Z" fill="#173C36"/>
<path d="M87.2516 47.3962C86.7051 47.3962 86.2338 47.2755 85.8375 47.0343C85.4437 46.7907 85.1397 46.451 84.9255 46.0153C84.7139 45.5772 84.608 45.0677 84.608 44.4868C84.608 43.9059 84.7139 43.3939 84.9255 42.9508C85.1397 42.5053 85.4375 42.1583 85.819 41.9097C86.203 41.6586 86.651 41.5331 87.163 41.5331C87.4583 41.5331 87.75 41.5823 88.038 41.6808C88.326 41.7792 88.5881 41.9392 88.8244 42.1607C89.0607 42.3798 89.249 42.6702 89.3893 43.0321C89.5296 43.3939 89.5998 43.8394 89.5998 44.3686V44.7378H85.2283V43.9846H88.7137C88.7137 43.6647 88.6497 43.3791 88.5217 43.1281C88.3961 42.877 88.2164 42.6789 87.9826 42.5336C87.7512 42.3884 87.478 42.3158 87.163 42.3158C86.8159 42.3158 86.5156 42.402 86.2621 42.5743C86.011 42.7441 85.8178 42.9656 85.6824 43.2388C85.547 43.512 85.4794 43.805 85.4794 44.1176V44.6197C85.4794 45.048 85.5532 45.411 85.7009 45.7089C85.851 46.0042 86.059 46.2294 86.3249 46.3845C86.5907 46.5371 86.8996 46.6134 87.2516 46.6134C87.4805 46.6134 87.6872 46.5814 87.8719 46.5174C88.0589 46.451 88.2201 46.3525 88.3555 46.2221C88.4909 46.0891 88.5955 45.9242 88.6693 45.7273L89.5112 45.9636C89.4225 46.2491 89.2736 46.5002 89.0644 46.7168C88.8552 46.931 88.5967 47.0983 88.2891 47.2189C87.9814 47.3371 87.6356 47.3962 87.2516 47.3962Z" fill="#173C36"/>
<path d="M90.9252 49.4047V41.6069H91.767V42.5078H91.8704C91.9344 42.4093 92.023 42.2838 92.1362 42.1312C92.2519 41.9761 92.4168 41.8383 92.631 41.7177C92.8476 41.5946 93.1405 41.5331 93.5097 41.5331C93.9872 41.5331 94.4081 41.6525 94.7724 41.8912C95.1367 42.13 95.421 42.4684 95.6253 42.9065C95.8296 43.3447 95.9317 43.8616 95.9317 44.4572C95.9317 45.0578 95.8296 45.5784 95.6253 46.019C95.421 46.4571 95.1379 46.7968 94.7761 47.038C94.4143 47.2768 93.9971 47.3962 93.5245 47.3962C93.1602 47.3962 92.8685 47.3359 92.6495 47.2152C92.4304 47.0922 92.2618 46.9531 92.1436 46.798C92.0255 46.6405 91.9344 46.51 91.8704 46.4067H91.7966V49.4047H90.9252ZM91.7818 44.4425C91.7818 44.8707 91.8446 45.2486 91.9701 45.5759C92.0956 45.9009 92.279 46.1556 92.5202 46.3402C92.7614 46.5224 93.0568 46.6134 93.4063 46.6134C93.7706 46.6134 94.0746 46.5174 94.3183 46.3254C94.5644 46.131 94.749 45.8701 94.8721 45.5427C94.9976 45.2129 95.0604 44.8461 95.0604 44.4425C95.0604 44.0437 94.9989 43.6843 94.8758 43.3644C94.7552 43.0419 94.5718 42.7872 94.3257 42.6001C94.082 42.4106 93.7755 42.3158 93.4063 42.3158C93.0519 42.3158 92.7541 42.4056 92.5128 42.5853C92.2716 42.7626 92.0895 43.0112 91.9664 43.3311C91.8433 43.6487 91.7818 44.0191 91.7818 44.4425Z" fill="#173C36"/>
<path d="M99.7272 41.6069V42.3453H96.7883V41.6069H99.7272ZM97.6449 40.2482H98.5162V45.6535C98.5162 45.8996 98.5519 46.0842 98.6233 46.2073C98.6971 46.3279 98.7907 46.4091 98.9039 46.451C99.0196 46.4904 99.1414 46.5101 99.2694 46.5101C99.3654 46.5101 99.4442 46.5051 99.5057 46.4953C99.5673 46.483 99.6165 46.4731 99.6534 46.4657L99.8306 47.2485C99.7715 47.2706 99.6891 47.2928 99.5832 47.3149C99.4774 47.3395 99.3433 47.3519 99.1808 47.3519C98.9347 47.3519 98.6935 47.2989 98.4572 47.1931C98.2233 47.0873 98.0289 46.926 97.8738 46.7094C97.7212 46.4928 97.6449 46.2196 97.6449 45.8898V40.2482Z" fill="#173C36"/>
<path d="M103.355 47.3962C102.808 47.3962 102.337 47.2755 101.941 47.0343C101.547 46.7907 101.243 46.451 101.029 46.0153C100.817 45.5772 100.711 45.0677 100.711 44.4868C100.711 43.9059 100.817 43.3939 101.029 42.9508C101.243 42.5053 101.541 42.1583 101.922 41.9097C102.306 41.6586 102.754 41.5331 103.266 41.5331C103.562 41.5331 103.853 41.5823 104.141 41.6808C104.429 41.7792 104.691 41.9392 104.928 42.1607C105.164 42.3798 105.352 42.6702 105.492 43.0321C105.633 43.3939 105.703 43.8394 105.703 44.3686V44.7378H101.331V43.9846H104.817C104.817 43.6647 104.753 43.3791 104.625 43.1281C104.499 42.877 104.32 42.6789 104.086 42.5336C103.854 42.3884 103.581 42.3158 103.266 42.3158C102.919 42.3158 102.619 42.402 102.365 42.5743C102.114 42.7441 101.921 42.9656 101.786 43.2388C101.65 43.512 101.583 43.805 101.583 44.1176V44.6197C101.583 45.048 101.656 45.411 101.804 45.7089C101.954 46.0042 102.162 46.2294 102.428 46.3845C102.694 46.5371 103.003 46.6134 103.355 46.6134C103.584 46.6134 103.79 46.5814 103.975 46.5174C104.162 46.451 104.323 46.3525 104.459 46.2221C104.594 46.0891 104.699 45.9242 104.773 45.7273L105.614 45.9636C105.526 46.2491 105.377 46.5002 105.168 46.7168C104.958 46.931 104.7 47.0983 104.392 47.2189C104.085 47.3371 103.739 47.3962 103.355 47.3962Z" fill="#173C36"/>
<path d="M109.17 47.3962C108.697 47.3962 108.28 47.2768 107.918 47.038C107.556 46.7968 107.273 46.4571 107.069 46.019C106.865 45.5784 106.763 45.0578 106.763 44.4572C106.763 43.8616 106.865 43.3447 107.069 42.9065C107.273 42.4684 107.558 42.13 107.922 41.8912C108.286 41.6525 108.707 41.5331 109.185 41.5331C109.554 41.5331 109.845 41.5946 110.06 41.7177C110.276 41.8383 110.441 41.9761 110.554 42.1312C110.67 42.2838 110.76 42.4093 110.824 42.5078H110.898V39.7166H111.769V47.278H110.927V46.4067H110.824C110.76 46.51 110.669 46.6405 110.551 46.798C110.433 46.9531 110.264 47.0922 110.045 47.2152C109.826 47.3359 109.534 47.3962 109.17 47.3962ZM109.288 46.6134C109.638 46.6134 109.933 46.5224 110.174 46.3402C110.415 46.1556 110.599 45.9009 110.724 45.5759C110.85 45.2486 110.913 44.8707 110.913 44.4425C110.913 44.0191 110.851 43.6487 110.728 43.3311C110.605 43.0112 110.423 42.7626 110.181 42.5853C109.94 42.4056 109.642 42.3158 109.288 42.3158C108.919 42.3158 108.611 42.4106 108.365 42.6001C108.121 42.7872 107.938 43.0419 107.815 43.3644C107.694 43.6843 107.634 44.0437 107.634 44.4425C107.634 44.8461 107.695 45.2129 107.819 45.5427C107.944 45.8701 108.129 46.131 108.372 46.3254C108.618 46.5174 108.924 46.6134 109.288 46.6134Z" fill="#173C36"/>
</svg>